<?xml version="1.0" encoding="UTF-8"?>
<svg id="Layer_1" xmlns="http://www.w3.org/2000/svg" xmlns:xlink="http://www.w3.org/1999/xlink" version="1.1" viewBox="0 0 88.8 85.1">
  <!-- Generator: Adobe Illustrator 30.1.0, SVG Export Plug-In . SVG Version: 2.1.1 Build 136)  -->
  <defs>
    <clipPath id="clippath">
      <path d="M23.7,7.5h49c4.4,0,8,3.6,8,8v57c0,4.4-3.6,8-8,8H15.7c-4.4,0-8-3.6-8-8V23.5c0-8.8,7.2-16,16-16Z" fill="none"/>
    </clipPath>
  </defs>
  <g clip-path="url(#clippath)">
    <g>
      <polygon points="7.7 7.5 44.2 7.5 44.2 43.9 7.7 7.5" fill="#006837"/>
      <polygon points="44.2 43.9 44.2 80.4 7.7 80.4 44.2 43.9" fill="#66007f"/>
      <rect x="44.2" y="7.5" width="36.5" height="36.5" fill="#f15a24"/>
      <rect x="44.2" y="43.9" width="36.5" height="36.5" fill="#1c3462"/>
      <g>
        <polygon points="44.2 43.9 7.7 43.9 7.7 7.5 44.2 43.9" fill="#009245"/>
        <polygon points="7.7 80.4 7.7 43.9 44.2 43.9 7.7 80.4" fill="#662d91"/>
        <polygon points="80.7 7.5 80.7 43.9 44.2 43.9 80.7 7.5" fill="#f7931e"/>
        <polygon points="44.2 43.9 80.7 43.9 80.7 80.4 44.2 43.9" fill="#2e3192"/>
      </g>
      <path d="M71.6,62.2c-.6-.9-1.6-2.1-3-3.4l-14.5-14.8,13.4-13.3c2.6-2.6,3.9-4.7,3.9-6.3s-.7-2.3-2-3.1c-1.2-.8-2.9-1.2-4.8-1.2s-2,.1-2.8.4c-.8.2-1.6.6-2.3,1.1-.6.5-1.3,1.1-2,1.8-.6.6-1.4,1.4-2.4,2.5-2.9,2.9-7.2,7.3-11.1,11.2-3.8-3.9-8-8.2-10.3-10.7-2-2.1-3.5-3.6-4.6-4.3-1.1-.8-2.7-1.2-4.6-1.2s-3.2.4-4.4,1.1c-1.2.7-1.8,1.5-1.8,2.4s.3,1.8.9,2.7c.6.9,1.6,2.1,2.8,3.4l13.3,13.6-15.8,15.3c-2.3,2.3-3.5,4.2-3.5,5.8s.6,2.4,1.7,3.1,2.6,1.1,4.3,1.1,2.1,0,2.9-.4c.8-.2,1.6-.6,2.2-1s1.1-.8,1.6-1.2c.4-.4,1.2-1.2,2.2-2.2l12.7-12.9c5,5.3,10.8,11.3,12.4,13h0c1.6,1.6,2.7,2.7,3.2,3.3.6.6,1.5,1.1,2.5,1.5s2.2.6,3.7.6,2.5-.2,3.6-.6,2-1,2.6-1.7c.7-.7,1-1.6,1-2.5s-.3-1.9-1-2.9v-.2ZM70.6,66.7c-.5.5-1.1,1-2,1.3s-2,.5-3.1.5-2.3-.2-3.1-.5-1.5-.8-2-1.2c-.6-.6-1.7-1.6-3.2-3.2-1.6-1.6-7.4-7.7-12.4-13l6.3-6.6c-1.4-1.5-3.6-3.7-5.9-6.1,4.4-4.4,9.1-9.1,11.1-11.2,1-1,1.8-1.8,2.4-2.5.6-.6,1.2-1.2,1.8-1.6.5-.4,1.2-.7,1.8-.9.7-.2,1.5-.3,2.4-.3,1.7,0,3,.3,4,1,.9.6,1.4,1.2,1.4,1.9s-.6,2.4-3.5,5.3l-14.4,14.3,15.4,15.8h0c1.3,1.3,2.3,2.4,2.8,3.2s.8,1.5.8,2.1-.2,1.1-.6,1.6h0Z" fill="#fff"/>
    </g>
  </g>
</svg>